# Made in Blockbench 4.12.4
mtllib bj_diaoban.mtl

o diaoban1
v 0.5 0.6196530383586316 -0.16842112986246774
v 0.5 0.12393060767172635 -0.23368422597249355
v -0.5 0.6196530383586316 -0.16842112986246774
v -0.5 0.12393060767172635 -0.23368422597249355
v 0.5 0.8750000000000001 -0.25
v 0.5 0.8749999999999998 -0.5000000000000001
v 0.5 8.326672684688674e-17 -0.2500000000000001
v 0.5 1.942890293094024e-16 -0.5000000000000001
v -0.5 0.8750000000000001 -0.25
v -0.5 0.8749999999999998 -0.5000000000000001
v -0.5 8.326672684688674e-17 -0.2500000000000001
v -0.5 1.942890293094024e-16 -0.5000000000000001
vt 1 0.5
vt 1 1
vt 0 1
vt 0 0.5
vt 1 0.75
vt 1 1
vt 0 1
vt 0 0.75
vt 1 0.75
vt 1 1
vt 0 1
vt 0 0.75
vt 1 0.125
vt 1 1
vt 0 1
vt 0 0.125
vt 1 0.875
vt 1 1
vt 0 1
vt 0 0.875
vt 0 1
vt 0 0.7319375
vt 1 0.7319375
vt 1 1
vt 0.2478625 0.875
vt 0.2478625 1
vt 0 0.84236875
vt 0.2478625 0.5
vt 0.2478625 1
vt 0 0.34236875
vt 0.5044350426546711 0.73193879838272
vt 0.5044350426546711 1
vt 0 0.24259232846105738
vt 0.2500001759902312 1
vt 0.000005137758219475597 1
vt 0 0.12500228276359704
vt 0 1
vt 0 0.875
vt 0.2478625 0.84236875
vt 0 1
vt 0 0.5
vt 0.2478625 0.34236875
vt 0.14859092479773944 1
vt 0 0.7768911815273709
vt 0.14859092479773933 0.08998841042321748
vt 0.874997717236403 0.7500049617679883
vt 0.874997717236403 1
vt 0 0.7499998240097687
vn 0 -0.13052619222005157 0.9914448613738104
vn 0 1 -1.304512053934559e-15
vn 0 -1 -4.440892098500626e-16
vn 0 0 -1
vn 0 -0.13052619222005246 0.9914448613738103
vn 0 0.30432847701890264 0.9525671514782332
vn -1 0 0
vn -1 0 0
vn -1 0 0
vn -1 0 0
vn 1 0 0
vn 1 0 0
vn 1 0 0
vn 1 0 0
usemtl m_a82e693f-f83a-c913-6947-cc5e5ef2ffb6
f 2/1/1 1/2/1 3/3/1
f 2/1/1 3/3/1 4/4/1
usemtl m_f59e3bac-8fcc-890c-63e5-9d78c1a9e541
f 5/5/2 6/6/2 10/7/2
f 5/5/2 10/7/2 9/8/2
usemtl m_cc4cbd32-c453-a4c6-e794-5e5fa231e7f1
f 8/9/3 7/10/3 11/11/3
f 8/9/3 11/11/3 12/12/3
f 12/13/4 10/14/4 6/15/4
f 12/13/4 6/15/4 8/16/4
usemtl m_f415f46e-f4d9-ee92-0447-ff4177d4eb65
f 7/17/5 2/18/5 4/19/5
f 7/17/5 4/19/5 11/20/5
usemtl m_a82e693f-f83a-c913-6947-cc5e5ef2ffb6
f 9/21/6 3/22/6 1/23/6
f 9/21/6 1/23/6 5/24/6
usemtl m_cc4cbd32-c453-a4c6-e794-5e5fa231e7f1
f 11/25/7 4/26/7 12/27/7
f 4/28/8 3/29/8 12/30/8
f 3/31/9 9/32/9 12/33/9
f 9/34/10 10/35/10 12/36/10
f 2/37/11 7/38/11 8/39/11
f 1/40/12 2/41/12 8/42/12
f 5/43/13 1/44/13 8/45/13
f 6/46/14 5/47/14 8/48/14
o diaoban2
v 0.5 0.875 -0.1875
v 0.5 0.875 -0.25
v 0.5 0 -0.1875
v 0.5 0 -0.25
v -0.5 0.875 -0.1875
v -0.5 0.875 -0.25
v -0.5 0 -0.1875
v -0.5 0 -0.25
v 0.5 0.875 -0.25
v 0.5 0.875 -0.5
v 0.5 0 -0.25
v 0.5 0 -0.5
v -0.5 0.875 -0.25
v -0.5 0.875 -0.5
v -0.5 0 -0.25
v -0.5 0 -0.5
v 0.49999999999999994 0.0625 -0.1875
v -0.5 0.0625 -0.1875
v 0.49999999999999994 0.06291303339554499 -0.12541303339554483
v -0.5 0.06291303339554499 -0.12541303339554483
v 0.49999999999999994 0.00041303339554499274 -0.18791303339554485
v -0.5000000000000001 0.00041303339554499274 -0.18791303339554485
v 0.49999999999999994 0.00041303339554499274 -0.17932609577889824
v -0.5000000000000001 0.00041303339554499274 -0.17932609577889824
v 0.49999999999999994 0.004644157566074725 -0.16353532540134738
v -0.5000000000000001 0.004644157566075169 -0.16353532540134738
v 0.49999999999999994 0.012818061787176482 -0.14937770799419742
v -0.5000000000000001 0.012818061787176926 -0.14937770799419742
v 0.49999999999999994 0.024377707994197362 -0.13781806178717665
v -0.5000000000000001 0.024377707994197806 -0.13781806178717665
v 0.49999999999999994 0.03853532540134719 -0.1296441575660749
v -0.5 0.03853532540134763 -0.1296441575660749
v 0.49999999999999994 0.05432609577889824 -0.12541303339554483
v -0.5 0.05432609577889824 -0.12541303339554483
v 0.5 0.5625 -0.125
v 0.5 0.5625 -0.1875
v 0.5 0.0625 -0.125
v 0.5 0.0625 -0.1875
v -0.5 0.5625 -0.125
v -0.5 0.5625 -0.1875
v -0.5 0.0625 -0.125
v -0.5 0.0625 -0.1875
v 0.5000000000000001 0.875 -0.125
v 0.5000000000000001 0.875 -0.140625
v 0.5000000000000001 0.5687499999999996 -0.125
v 0.5000000000000001 0.5687499999999996 -0.140625
v -0.5000000000000001 0.875 -0.125
v -0.5000000000000001 0.875 -0.140625
v -0.5000000000000001 0.5687499999999996 -0.125
v -0.5000000000000001 0.5687499999999996 -0.140625
v 0.5 0.875 -0.140625
v 0.5 0.875 -0.1875
v 0.5 0.5625 -0.140625
v 0.5 0.5625 -0.1875
v -0.5 0.875 -0.140625
v -0.5 0.875 -0.1875
v -0.5 0.5625 -0.140625
v -0.5 0.5625 -0.1875
vt 0.0625 0.125
vt 0.0625 1
vt 0 1
vt 0 0.125
vt 0.0625 0.125
vt 0.0625 1
vt 0 1
vt 0 0.125
vt 1 0.9375
vt 1 1
vt 0 1
vt 0 0.9375
vt 1 0.9375
vt 1 1
vt 0 1
vt 0 0.9375
vt 0.25 0.125
vt 0.25 1
vt 0 1
vt 0 0.125
vt 0.25 0.125
vt 0.25 1
vt 0 1
vt 0 0.125
vt 1 0.75
vt 1 1
vt 0 1
vt 0 0.75
vt 1 0.75
vt 1 1
vt 0 1
vt 0 0.75
vt 1 0.125
vt 1 1
vt 0 1
vt 0 0.125
vt 0 1
vt 0 0.86835
vt 0.5 0.934175
vt 0 0.5
vt 0.13165 0.5
vt 0.13165 1
vt 0 1
vt 0 1
vt 0 0.86835
vt 0.5 0.934175
vt 0.13052850246018952 1
vt 0 0.9828155114401739
vt 0.13052850246018977 0.49568591813824747
vt 0 0.5
vt 0.13165 0.5
vt 0.13165 1
vt 0 1
vt 0 1
vt 0.01718495139657883 0.8694715584745618
vt 0.5043143172913099 0.9999999999999998
vt 0.13052395331889513 1
vt 0 0.9828163335909685
vt 0.13052395331889516 0.4956857650838492
vt 0 0.5
vt 0.13165 0.5
vt 0.13165 1
vt 0 1
vt 0 1
vt 0.01718336551526345 0.8694760070683598
vt 0.5043140818617526 0.9999999999999998
vt 0.13052808725869539 1
vt 0 0.9828153843595087
vt 0.13052808725869536 0.4956857650838492
vt 0 0.5
vt 0.13165 0.5
vt 0.13165 1
vt 0 1
vt 0 1
vt 0.01718461564049134 0.8694719127413046
vt 0.5043142349161508 1
vt 0.13052399293164016 1
vt 0 0.9828166344847366
vt 0.13052399293164021 0.49568591813824747
vt 0 0.5
vt 0.13165 0.5
vt 0.13165 1
vt 0 1
vt 0 1
vt 0.017183666409031406 0.8694760466811049
vt 0.5043142349161508 1
vt 0.13052844152543813 1
vt 0 0.9828150486034212
vt 0.13052844152543797 0.49568568270869007
vt 0 0.5
vt 0.13165 0.5
vt 0.13165 1
vt 0 1
vt 0 0.9999999999999998
vt 0.017184488559826128 0.8694714975398102
vt 0.5043140818617525 1
vt 0.13165 1
vt 0 1
vt 0.065825 0.5
vt 0 0.5
vt 0.13165 0.5
vt 0.13165 1
vt 0 1
vt 0 0.5
vt 0.13165 0.5
vt 0.065825 1
vt 0.0625 0.5
vt 0.0625 1
vt 0 1
vt 0 0.5
vt 0.0625 0.5
vt 0.0625 1
vt 0 1
vt 0 0.5
vt 1 0.5
vt 1 1
vt 0 1
vt 0 0.5
vt 0.015625 0.6937500000000001
vt 0.015625 1
vt 0 1
vt 0 0.6937500000000001
vt 0.015625 0.6937500000000001
vt 0.015625 1
vt 0 1
vt 0 0.6937500000000001
vt 0.9875 0.984375
vt 0.9875 1
vt 0 1
vt 0 0.984375
vt 0.9875 0.984375
vt 0.9875 1
vt 0 1
vt 0 0.984375
vt 0.9875 0.6937500000000001
vt 0.9875 1
vt 0 1
vt 0 0.6937500000000001
vt 0.046875 0.6875
vt 0.046875 1
vt 0 1
vt 0 0.6875
vt 0.046875 0.6875
vt 0.046875 1
vt 0 1
vt 0 0.6875
vt 1 0.953125
vt 1 1
vt 0 1
vt 0 0.953125
vt 1 0.6875
vt 1 1
vt 0 1
vt 0 0.6875
vt 0 0.984375
vt 1 0.984375
vt 1 1
vt 0 1
vn 1 0 0
vn -1 0 0
vn 0 1 0
vn 0 -1 0
vn 1 0 0
vn -1 0 0
vn 0 1 0
vn 0 -1 0
vn 0 0 -1
vn 1 0 0
vn 0 -1 0
vn -1 1.7881740489887187e-15 0
vn 1 0 0
vn -4.2859913391199314e-16 -0.9659258262890731 0.2588190451025027
vn -1 1.7272434958180947e-15 -4.6281349983638175e-16
vn 1 0 0
vn -3.8466150509702915e-16 -0.8660254037844389 0.4999999999999998
vn -1 1.548604152812312e-15 -8.940870244943601e-16
vn 1 0 0
vn -3.133664847557688e-16 -0.7071067811865442 0.707106781186551
vn -1 1.264429995981724e-15 -1.2644299959817361e-15
vn 1 0 0
vn -2.2217517966811327e-16 -0.5000000000000036 0.8660254037844368
vn -1 6.328451693600898e-15 2.6213305203124495e-15
vn 1 0 0
vn 0 -0.2588190451025188 0.965925826289069
vn -1 0 0
vn 1 0 0
vn 0 0 1
vn -1 0 0
vn 1 0 0
vn -1 0 0
vn 0 0 1
vn 1 0 0
vn -1 0 0
vn 0 1 0
vn 0 -1 0
vn 0 0 1
vn 1 0 0
vn -1 0 0
vn 0 1 0
vn 0 0 1
vn 0 1 0
usemtl m_cc4cbd32-c453-a4c6-e794-5e5fa231e7f1
f 16/49/15 14/50/15 13/51/15
f 16/49/15 13/51/15 15/52/15
f 19/53/16 17/54/16 18/55/16
f 19/53/16 18/55/16 20/56/16
usemtl m_f59e3bac-8fcc-890c-63e5-9d78c1a9e541
f 13/57/17 14/58/17 18/59/17
f 13/57/17 18/59/17 17/60/17
f 16/61/18 15/62/18 19/63/18
f 16/61/18 19/63/18 20/64/18
usemtl m_cc4cbd32-c453-a4c6-e794-5e5fa231e7f1
f 24/65/19 22/66/19 21/67/19
f 24/65/19 21/67/19 23/68/19
f 27/69/20 25/70/20 26/71/20
f 27/69/20 26/71/20 28/72/20
usemtl m_f59e3bac-8fcc-890c-63e5-9d78c1a9e541
f 21/73/21 22/74/21 26/75/21
f 21/73/21 26/75/21 25/76/21
usemtl m_cc4cbd32-c453-a4c6-e794-5e5fa231e7f1
f 24/77/22 23/78/22 27/79/22
f 24/77/22 27/79/22 28/80/22
usemtl m_f59e3bac-8fcc-890c-63e5-9d78c1a9e541
f 28/81/23 26/82/23 22/83/23
f 28/81/23 22/83/23 24/84/23
usemtl m_cc4cbd32-c453-a4c6-e794-5e5fa231e7f1
f 35/85/24 33/86/24 29/87/24
usemtl m_f415f46e-f4d9-ee92-0447-ff4177d4eb65
f 33/88/25 35/89/25 36/90/25
f 33/88/25 36/90/25 34/91/25
usemtl m_cc4cbd32-c453-a4c6-e794-5e5fa231e7f1
f 34/92/26 36/93/26 30/94/26
f 37/95/27 35/96/27 29/97/27
usemtl m_f415f46e-f4d9-ee92-0447-ff4177d4eb65
f 35/98/28 37/99/28 38/100/28
f 35/98/28 38/100/28 36/101/28
usemtl m_cc4cbd32-c453-a4c6-e794-5e5fa231e7f1
f 36/102/29 38/103/29 30/104/29
f 39/105/30 37/106/30 29/107/30
usemtl m_f415f46e-f4d9-ee92-0447-ff4177d4eb65
f 37/108/31 39/109/31 40/110/31
f 37/108/31 40/110/31 38/111/31
usemtl m_cc4cbd32-c453-a4c6-e794-5e5fa231e7f1
f 38/112/32 40/113/32 30/114/32
f 41/115/33 39/116/33 29/117/33
usemtl m_f415f46e-f4d9-ee92-0447-ff4177d4eb65
f 39/118/34 41/119/34 42/120/34
f 39/118/34 42/120/34 40/121/34
usemtl m_cc4cbd32-c453-a4c6-e794-5e5fa231e7f1
f 40/122/35 42/123/35 30/124/35
f 43/125/36 41/126/36 29/127/36
usemtl m_f415f46e-f4d9-ee92-0447-ff4177d4eb65
f 41/128/37 43/129/37 44/130/37
f 41/128/37 44/130/37 42/131/37
usemtl m_cc4cbd32-c453-a4c6-e794-5e5fa231e7f1
f 42/132/38 44/133/38 30/134/38
f 45/135/39 43/136/39 29/137/39
usemtl m_f415f46e-f4d9-ee92-0447-ff4177d4eb65
f 43/138/40 45/139/40 46/140/40
f 43/138/40 46/140/40 44/141/40
usemtl m_cc4cbd32-c453-a4c6-e794-5e5fa231e7f1
f 44/142/41 46/143/41 30/144/41
f 31/145/42 45/146/42 29/147/42
usemtl m_f415f46e-f4d9-ee92-0447-ff4177d4eb65
f 45/148/43 31/149/43 32/150/43
f 45/148/43 32/150/43 46/151/43
usemtl m_cc4cbd32-c453-a4c6-e794-5e5fa231e7f1
f 46/152/44 32/153/44 30/154/44
f 50/155/45 48/156/45 47/157/45
f 50/155/45 47/157/45 49/158/45
f 53/159/46 51/160/46 52/161/46
f 53/159/46 52/161/46 54/162/46
usemtl m_a82e693f-f83a-c913-6947-cc5e5ef2ffb6
f 49/163/47 47/164/47 51/165/47
f 49/163/47 51/165/47 53/166/47
usemtl m_cc4cbd32-c453-a4c6-e794-5e5fa231e7f1
f 58/167/48 56/168/48 55/169/48
f 58/167/48 55/169/48 57/170/48
f 61/171/49 59/172/49 60/173/49
f 61/171/49 60/173/49 62/174/49
usemtl m_f59e3bac-8fcc-890c-63e5-9d78c1a9e541
f 55/175/50 56/176/50 60/177/50
f 55/175/50 60/177/50 59/178/50
usemtl m_cc4cbd32-c453-a4c6-e794-5e5fa231e7f1
f 58/179/51 57/180/51 61/181/51
f 58/179/51 61/181/51 62/182/51
usemtl m_a82e693f-f83a-c913-6947-cc5e5ef2ffb6
f 57/183/52 55/184/52 59/185/52
f 57/183/52 59/185/52 61/186/52
usemtl m_cc4cbd32-c453-a4c6-e794-5e5fa231e7f1
f 66/187/53 64/188/53 63/189/53
f 66/187/53 63/189/53 65/190/53
f 69/191/54 67/192/54 68/193/54
f 69/191/54 68/193/54 70/194/54
usemtl m_f59e3bac-8fcc-890c-63e5-9d78c1a9e541
f 63/195/55 64/196/55 68/197/55
f 63/195/55 68/197/55 67/198/55
usemtl m_95e20f84-55bb-7186-f91a-586499bd637e
f 65/199/56 63/200/56 67/201/56
f 65/199/56 67/201/56 69/202/56
usemtl m_f59e3bac-8fcc-890c-63e5-9d78c1a9e541
f 51/203/57 47/204/57 65/205/57
f 51/203/57 65/205/57 69/206/57
o cube
v 0.5625 0.5625 -0.0625
v 0.5625 0.5625 -0.125
v 0.5625 0.5625 -0.0625
v 0.5625 0.5625 -0.125
v 0.5 0.5625 -0.125
v 0.5 0.5625 -0.0625
v 0.5 0.5625 -0.125
v 0.5 0.5625 -0.0625
vt 0 1
vt 0.0625 1
vt 0.0625 1
vt 0 1
vt 0 1
vt 0.0625 1
vt 0.0625 1
vt 0 1
vt 0 1
vt 0.0625 1
vt 0.0625 1
vt 0 1
vt 0 1
vt 0.0625 1
vt 0.0625 1
vt 0 1
vt 0 1
vt 0.0625 1
vt 0.0625 0.9375
vt 0 0.9375
vt 0 1
vt 0.0625 1
vt 0.0625 0.9375
vt 0 0.9375
vn 0 0 -1
vn 1 0 0
vn 0 0 1
vn -1 0 0
vn 0 1 0
vn 0 -1 0
usemtl none
f 77/209/58 75/208/58 72/207/58
f 74/210/58 77/209/58 72/207/58
f 74/213/59 72/212/59 71/211/59
f 73/214/59 74/213/59 71/211/59
f 73/217/60 71/216/60 76/215/60
f 78/218/60 73/217/60 76/215/60
f 78/221/61 76/220/61 75/219/61
f 77/222/61 78/221/61 75/219/61
f 71/225/62 72/224/62 75/223/62
f 76/226/62 71/225/62 75/223/62
f 74/229/63 73/228/63 78/227/63
f 77/230/63 74/229/63 78/227/63