# Made in Blockbench 4.12.3
mtllib bj_sc_1_doorlight.mtl

o r
v 0.50003125 1.640609375 -0.37501546863398466
v 0.50003125 1.65625 -0.4375309373453129
v 0.50003125 1.62496875 -0.37501546863398466
v 0.50003125 1.62496875 -0.4375309373453129
v 0.43746875 1.640609375 -0.37501546863398466
v 0.43746875 1.65625 -0.4375309373453129
v 0.43746875 1.62496875 -0.37501546863398466
v 0.43746875 1.62496875 -0.4375309373453129
v 0.50003125 1.65625 -0.1874690625
v 0.50003125 1.640609375 -0.3124999999226564
v 0.50003125 1.62496875 -0.1874690625
v 0.50003125 1.62496875 -0.3124999999226564
v 0.43746875 1.65625 -0.1874690625
v 0.43746875 1.640609375 -0.3124999999226564
v 0.43746875 1.62496875 -0.1874690625
v 0.43746875 1.62496875 -0.3124999999226564
v 0.50003125 1.671649759375 -0.24460132420059572
v 0.43746875 1.671649759375 -0.24460132420059572
v 0.50003125 1.6821834075 -0.3065929132841231
v 0.43746875 1.6821834075 -0.3065929132841231
v 0.50003125 1.68753125 -0.3715608638329967
v 0.43746875 1.68753125 -0.3715608638329967
v 0.50003125 1.68753125 -0.4375315625
v 0.43746875 1.68753125 -0.4375315625
vt 0.1875 0.96875
vt 0.1875 1
vt 0 1
vt 0 0.96875
vt 0.1875 0.96875
vt 0.1875 1
vt 0 1
vt 0 0.96875
vt 0.0625 0.8125
vt 0.0625 1
vt 0 1
vt 0 0.8125
vt 0.0625 0.96875
vt 0.0625 1
vt 0 1
vt 0 0.96875
vt 0.0625 0.96875
vt 0.0625 1
vt 0 1
vt 0 0.96875
vt 0.1875 0.96875
vt 0.1875 1
vt 0 1
vt 0 0.96875
vt 0.1875 0.96875
vt 0.1875 1
vt 0 1
vt 0 0.96875
vt 0.0625 0.8125
vt 0.0625 1
vt 0 1
vt 0 0.8125
vt 0.0625 0.96875
vt 0.0625 1
vt 0 1
vt 0 0.96875
vt 0.0625 0.96875
vt 0.0625 1
vt 0 1
vt 0 0.96875
vt 0.0625 0.9375
vt 0.0625 1
vt 0 1
vt 0 0.9375
vt 0.501913125 0.91284625
vt 0.49428125 1
vt 0 0.91284625
vt 0 0.5
vt 0.0874875 0.5
vt 0.0874875 1
vt 0 1
vt 0 0.49809375
vt 0.087155 0.505711875
vt 0 1
vt 0.501909375 0.912845
vt 0.494288125 1
vt 0 0.912845
vt 0 0.5
vt 0.0874875 0.5
vt 0.0874875 1
vt 0 1
vt 0 0.49808687500000004
vt 0.08715375 0.505715625
vt 0 1
vt 0.50191 0.91284125
vt 0.494283125 1
vt 0 0.91284125
vt 0 0.5
vt 0.0874875 0.5
vt 0.0874875 1
vt 0 1
vt 0 0.498090625
vt 0.08715875 0.505715625
vt 0 1
vt 0 0.5
vt 0.0874875 0.5
vt 0.0874875 1
vt 0 1
vt 0.5 0.9125125000000001
vt 0.5 1
vt 0 0.95625625
vt 0.5 0.9125125000000001
vt 0.5 1
vt 0 0.95625625
vt 0 0.5
vt 0.50759375 0.5
vt 0.50759375 1
vt 0 1
vt 0.25 1
vt 0 1
vt 0.0625 0.984375
vt 0.125 0.984375
vt 0.25 1
vt 0 1
vt 0.125 0.984375
vt 0.1875 0.984375
vn 1 0 0
vn -1 0 0
vn 0 -1 0
vn 0 0 1
vn 0 0 -1
vn 1 0 0
vn -1 0 0
vn 0 -1 0
vn 0 0 1
vn 0 0 -1
vn 0 -1 0
vn 1 0 0
vn 0 0.9655393662447351 0.2602570503016494
vn -1 0 0
vn 1 0 0
vn 0 0.9858687769167528 0.16751941589160965
vn -1 0 0
vn 1 0 0
vn 0 0.9966292332526865 0.0820376220167455
vn -1 0 0
vn 0 1 0
vn -1 0 0
vn 1 0 0
vn 0 -0.000019984965018204744 -0.9999999998003007
vn -1 0 0
vn 1 0 0
usemtl dlon#light
f 4/1/1 2/2/1 1/3/1
f 4/1/1 1/3/1 3/4/1
f 7/5/2 5/6/2 6/7/2
f 7/5/2 6/7/2 8/8/2
f 4/9/3 3/10/3 7/11/3
f 4/9/3 7/11/3 8/12/3
f 3/13/4 1/14/4 5/15/4
f 3/13/4 5/15/4 7/16/4
f 8/17/5 6/18/5 2/19/5
f 8/17/5 2/19/5 4/20/5
f 12/21/6 10/22/6 9/23/6
f 12/21/6 9/23/6 11/24/6
f 15/25/7 13/26/7 14/27/7
f 15/25/7 14/27/7 16/28/7
f 12/29/8 11/30/8 15/31/8
f 12/29/8 15/31/8 16/32/8
f 11/33/9 9/34/9 13/35/9
f 11/33/9 13/35/9 15/36/9
f 16/37/10 14/38/10 10/39/10
f 16/37/10 10/39/10 12/40/10
f 1/41/11 10/42/11 14/43/11
f 1/41/11 14/43/11 5/44/11
f 17/45/12 9/46/12 2/47/12
f 9/48/13 17/49/13 18/50/13
f 9/48/13 18/50/13 13/51/13
f 13/52/14 18/53/14 6/54/14
f 19/55/15 17/56/15 2/57/15
f 17/58/16 19/59/16 20/60/16
f 17/58/16 20/60/16 18/61/16
f 18/62/17 20/63/17 6/64/17
f 21/65/18 19/66/18 2/67/18
f 19/68/19 21/69/19 22/70/19
f 19/68/19 22/70/19 20/71/19
f 20/72/20 22/73/20 6/74/20
f 21/75/21 23/76/21 24/77/21
f 21/75/21 24/77/21 22/78/21
f 22/79/22 24/80/22 6/81/22
f 23/82/23 21/83/23 2/84/23
f 23/85/24 2/86/24 6/87/24
f 23/85/24 6/87/24 24/88/24
f 13/89/25 6/90/25 5/91/25
f 13/89/25 5/91/25 14/92/25
f 2/93/26 9/94/26 10/95/26
f 2/93/26 10/95/26 1/96/26
o l
v -0.43746875 1.640609375 -0.37501546863398466
v -0.43746875 1.65625 -0.4375309373453129
v -0.43746875 1.62496875 -0.37501546863398466
v -0.43746875 1.62496875 -0.4375309373453129
v -0.50003125 1.640609375 -0.37501546863398466
v -0.50003125 1.65625 -0.4375309373453129
v -0.50003125 1.62496875 -0.37501546863398466
v -0.50003125 1.62496875 -0.4375309373453129
v -0.43746875 1.65625 -0.1874690625
v -0.43746875 1.640609375 -0.3124999999226564
v -0.43746875 1.62496875 -0.1874690625
v -0.43746875 1.62496875 -0.3124999999226564
v -0.50003125 1.65625 -0.1874690625
v -0.50003125 1.640609375 -0.3124999999226564
v -0.50003125 1.62496875 -0.1874690625
v -0.50003125 1.62496875 -0.3124999999226564
v -0.43746875 1.671649759375 -0.24460132420059572
v -0.50003125 1.671649759375 -0.24460132420059572
v -0.43746875 1.6821834075 -0.3065929132841231
v -0.50003125 1.6821834075 -0.3065929132841231
v -0.43746875 1.68753125 -0.3715608638329967
v -0.50003125 1.68753125 -0.3715608638329967
v -0.43746875 1.68753125 -0.4375315625
v -0.50003125 1.68753125 -0.4375315625
vt 0.1875 0.96875
vt 0.1875 1
vt 0 1
vt 0 0.96875
vt 0.1875 0.96875
vt 0.1875 1
vt 0 1
vt 0 0.96875
vt 0.0625 0.8125
vt 0.0625 1
vt 0 1
vt 0 0.8125
vt 0.0625 0.96875
vt 0.0625 1
vt 0 1
vt 0 0.96875
vt 0.0625 0.96875
vt 0.0625 1
vt 0 1
vt 0 0.96875
vt 0.1875 0.96875
vt 0.1875 1
vt 0 1
vt 0 0.96875
vt 0.1875 0.96875
vt 0.1875 1
vt 0 1
vt 0 0.96875
vt 0.0625 0.8125
vt 0.0625 1
vt 0 1
vt 0 0.8125
vt 0.0625 0.96875
vt 0.0625 1
vt 0 1
vt 0 0.96875
vt 0.0625 0.96875
vt 0.0625 1
vt 0 1
vt 0 0.96875
vt 0.0625 0.9375
vt 0.0625 1
vt 0 1
vt 0 0.9375
vt 0.501913125 0.91284625
vt 0.49428125 1
vt 0 0.91284625
vt 0 0.5
vt 0.0874875 0.5
vt 0.0874875 1
vt 0 1
vt 0 0.49809375
vt 0.087155 0.505711875
vt 0 1
vt 0.501909375 0.912845
vt 0.494288125 1
vt 0 0.912845
vt 0 0.5
vt 0.0874875 0.5
vt 0.0874875 1
vt 0 1
vt 0 0.49808687500000004
vt 0.08715375 0.505715625
vt 0 1
vt 0.50191 0.91284125
vt 0.494283125 1
vt 0 0.91284125
vt 0 0.5
vt 0.0874875 0.5
vt 0.0874875 1
vt 0 1
vt 0 0.498090625
vt 0.08715875 0.505715625
vt 0 1
vt 0 0.5
vt 0.0874875 0.5
vt 0.0874875 1
vt 0 1
vt 0.5 0.9125125000000001
vt 0.5 1
vt 0 0.95625625
vt 0.5 0.9125125000000001
vt 0.5 1
vt 0 0.95625625
vt 0 0.5
vt 0.50759375 0.5
vt 0.50759375 1
vt 0 1
vt 0.25 1
vt 0 1
vt 0.0625 0.984375
vt 0.125 0.984375
vt 0.25 1
vt 0 1
vt 0.125 0.984375
vt 0.1875 0.984375
vn 1 0 0
vn -1 0 0
vn 0 -1 0
vn 0 0 1
vn 0 0 -1
vn 1 0 0
vn -1 0 0
vn 0 -1 0
vn 0 0 1
vn 0 0 -1
vn 0 -1 0
vn 1 0 0
vn 0 0.9655393662447351 0.2602570503016494
vn -1 0 0
vn 1 0 0
vn 0 0.9858687769167528 0.16751941589160965
vn -1 0 0
vn 1 0 0
vn 0 0.9966292332526865 0.0820376220167455
vn -1 0 0
vn 0 1 0
vn -1 0 0
vn 1 0 0
vn 0 -0.000019984965018204744 -0.9999999998003007
vn -1 0 0
vn 1 0 0
usemtl dlon#light
f 28/97/27 26/98/27 25/99/27
f 28/97/27 25/99/27 27/100/27
f 31/101/28 29/102/28 30/103/28
f 31/101/28 30/103/28 32/104/28
f 28/105/29 27/106/29 31/107/29
f 28/105/29 31/107/29 32/108/29
f 27/109/30 25/110/30 29/111/30
f 27/109/30 29/111/30 31/112/30
f 32/113/31 30/114/31 26/115/31
f 32/113/31 26/115/31 28/116/31
f 36/117/32 34/118/32 33/119/32
f 36/117/32 33/119/32 35/120/32
f 39/121/33 37/122/33 38/123/33
f 39/121/33 38/123/33 40/124/33
f 36/125/34 35/126/34 39/127/34
f 36/125/34 39/127/34 40/128/34
f 35/129/35 33/130/35 37/131/35
f 35/129/35 37/131/35 39/132/35
f 40/133/36 38/134/36 34/135/36
f 40/133/36 34/135/36 36/136/36
f 25/137/37 34/138/37 38/139/37
f 25/137/37 38/139/37 29/140/37
f 41/141/38 33/142/38 26/143/38
f 33/144/39 41/145/39 42/146/39
f 33/144/39 42/146/39 37/147/39
f 37/148/40 42/149/40 30/150/40
f 43/151/41 41/152/41 26/153/41
f 41/154/42 43/155/42 44/156/42
f 41/154/42 44/156/42 42/157/42
f 42/158/43 44/159/43 30/160/43
f 45/161/44 43/162/44 26/163/44
f 43/164/45 45/165/45 46/166/45
f 43/164/45 46/166/45 44/167/45
f 44/168/46 46/169/46 30/170/46
f 45/171/47 47/172/47 48/173/47
f 45/171/47 48/173/47 46/174/47
f 46/175/48 48/176/48 30/177/48
f 47/178/49 45/179/49 26/180/49
f 47/181/50 26/182/50 30/183/50
f 47/181/50 30/183/50 48/184/50
f 37/185/51 30/186/51 29/187/51
f 37/185/51 29/187/51 38/188/51
f 26/189/52 33/190/52 34/191/52
f 26/189/52 34/191/52 25/192/52