# Made in Blockbench 4.12.4
mtllib beijing_1_door.mtl

o gatebr
v 0 0.5 0.012500000000000004
v 0 0.5 -0.012500000000000004
v 0 0 0.012500000000000004
v 0 0 -0.012500000000000004
v -0.15625 0.5 -0.012500000000000004
v -0.15625 0.5 0.012500000000000004
v -0.15625 0 -0.012500000000000004
v -0.15625 0 0.012500000000000004
vt 0 1
vt 0.15625 1
vt 0.15625 0.5
vt 0 0.5
vt 0 1
vt 0.02500000000000001 1
vt 0.02500000000000001 0.5
vt 0 0.5
vt 0 1
vt 0.15625 1
vt 0.15625 0.5
vt 0 0.5
vt 0 1
vt 0.02500000000000001 1
vt 0.02500000000000001 0.5
vt 0 0.5
vt 0 1
vt 0.15625 1
vt 0.15625 0.975
vt 0 0.975
vt 0 1
vt 0.15625 1
vt 0.15625 0.975
vt 0 0.975
vn 0 0 -1
vn 1 0 0
vn 0 0 1
vn -1 0 0
vn 0 1 0
vn 0 -1 0
usemtl m_9fd03867-6dcd-8849-eee7-77858ecc9c37
f 7/3/1 5/2/1 2/1/1
f 4/4/1 7/3/1 2/1/1
f 4/7/2 2/6/2 1/5/2
f 3/8/2 4/7/2 1/5/2
f 3/11/3 1/10/3 6/9/3
f 8/12/3 3/11/3 6/9/3
f 8/15/4 6/14/4 5/13/4
f 7/16/4 8/15/4 5/13/4
f 1/19/5 2/18/5 5/17/5
f 6/20/5 1/19/5 5/17/5
f 4/23/6 3/22/6 8/21/6
f 7/24/6 4/23/6 8/21/6
o gatear
v 0 0.5625 0.018750000000000003
v 0 0.5625 -0.018750000000000003
v 0 0 0.018750000000000003
v 0 0 -0.018750000000000003
v -0.1875 0.5625 0.018750000000000003
v -0.1875 0.5625 -0.018750000000000003
v -0.0625 0 0.018750000000000003
v -0.0625 0 -0.018750000000000003
vt 0.037500000000000006 0.4375
vt 0.037500000000000006 1
vt 0 1
vt 0 0.4375
vt 0.037500000000000006 0.4375
vt 0.037500000000000006 1
vt 0 1
vt 0 0.4375
vt 0.25 0.9625
vt 0.25 1
vt 0 1
vt 0 0.9625
vt 0.25 0.9625
vt 0.25 1
vt 0 1
vt 0 0.9625
vt 0.25 0.4375
vt 0.25 1
vt 0 1
vt 0 0.4375
vt 0.25 0.4375
vt 0.25 1
vt 0 1
vt 0 0.4375
vn 1 0 0
vn -0.9761870601839527 -0.2169304578186562 0
vn 0 1 0
vn 0 -1 0
vn 0 0 1
vn 0 0 -1
usemtl m_9fd03867-6dcd-8849-eee7-77858ecc9c37
f 12/25/7 10/26/7 9/27/7
f 12/25/7 9/27/7 11/28/7
f 15/29/8 13/30/8 14/31/8
f 15/29/8 14/31/8 16/32/8
f 9/33/9 10/34/9 14/35/9
f 9/33/9 14/35/9 13/36/9
f 12/37/10 11/38/10 15/39/10
f 12/37/10 15/39/10 16/40/10
f 11/41/11 9/42/11 13/43/11
f 11/41/11 13/43/11 15/44/11
f 16/45/12 14/46/12 10/47/12
f 16/45/12 10/47/12 12/48/12
o gatebl
v 0.15625 0.5 0.012500000000000004
v 0.15625 0.5 -0.012500000000000004
v 0.15625 0 0.012500000000000004
v 0.15625 0 -0.012500000000000004
v 0 0.5 -0.012500000000000004
v 0 0.5 0.012500000000000004
v 0 0 -0.012500000000000004
v 0 0 0.012500000000000004
vt 0 1
vt 0.15625 1
vt 0.15625 0.5
vt 0 0.5
vt 0 1
vt 0.02500000000000001 1
vt 0.02500000000000001 0.5
vt 0 0.5
vt 0 1
vt 0.15625 1
vt 0.15625 0.5
vt 0 0.5
vt 0 1
vt 0.02500000000000001 1
vt 0.02500000000000001 0.5
vt 0 0.5
vt 0.15625 0.975
vt 0 0.975
vt 0 1
vt 0.15625 1
vt 0.15625 0.975
vt 0 0.975
vt 0 1
vt 0.15625 1
vn 0 0 -1
vn 1 0 0
vn 0 0 1
vn -1 0 0
vn 0 1 0
vn 0 -1 0
usemtl m_9fd03867-6dcd-8849-eee7-77858ecc9c37
f 23/51/13 21/50/13 18/49/13
f 20/52/13 23/51/13 18/49/13
f 20/55/14 18/54/14 17/53/14
f 19/56/14 20/55/14 17/53/14
f 19/59/15 17/58/15 22/57/15
f 24/60/15 19/59/15 22/57/15
f 24/63/16 22/62/16 21/61/16
f 23/64/16 24/63/16 21/61/16
f 17/67/17 18/66/17 21/65/17
f 22/68/17 17/67/17 21/65/17
f 20/71/18 19/70/18 24/69/18
f 23/72/18 20/71/18 24/69/18
o gateal
v 0 0.5625 -0.018750000000000003
v 0 0.5625 0.018750000000000003
v 0 0 -0.018750000000000003
v 0 0 0.018750000000000003
v 0.1875 0.5625 -0.018750000000000003
v 0.1875 0.5625 0.018750000000000003
v 0.0625 0 -0.018750000000000003
v 0.0625 0 0.018750000000000003
vt 0.037500000000000006 0.4375
vt 0.037500000000000006 1
vt 0 1
vt 0 0.4375
vt 0.037500000000000006 0.4375
vt 0.037500000000000006 1
vt 0 1
vt 0 0.4375
vt 0.25 0.9625
vt 0.25 1
vt 0 1
vt 0 0.9625
vt 0.25 0.9625
vt 0.25 1
vt 0 1
vt 0 0.9625
vt 0.25 0.4375
vt 0.25 1
vt 0 1
vt 0 0.4375
vt 0.25 0.4375
vt 0.25 1
vt 0 1
vt 0 0.4375
vn -1 0 0
vn 0.9761870601839527 -0.2169304578186562 0
vn 0 1 0
vn 0 -1 0
vn 0 0 -1
vn 0 0 1
usemtl m_9fd03867-6dcd-8849-eee7-77858ecc9c37
f 28/73/19 26/74/19 25/75/19
f 28/73/19 25/75/19 27/76/19
f 31/77/20 29/78/20 30/79/20
f 31/77/20 30/79/20 32/80/20
f 25/81/21 26/82/21 30/83/21
f 25/81/21 30/83/21 29/84/21
f 28/85/22 27/86/22 31/87/22
f 28/85/22 31/87/22 32/88/22
f 27/89/23 25/90/23 29/91/23
f 27/89/23 29/91/23 31/92/23
f 32/93/24 30/94/24 26/95/24
f 32/93/24 26/95/24 28/96/24