# Made in Blockbench 4.12.4
mtllib beijing_1_open.mtl

o open
v 0.5934375000000001 0.8749992809387356 0.43749999999999994
v 0.40656250000000005 0.8749992809387356 0.43749999999999994
v 0.40656250000000005 0.875 0.875
v 0.4065625000000001 0.9482230940951949 0.8406648793722977
v 0.5934375000000001 1.0138731242572 0.7743345198462015
v 0.40656250000000005 1.0138731242572 0.7743345198462015
v 0.5934375000000001 1.0674761494222793 0.6805292258073128
v 0.4065625000000001 1.0674761494222793 0.6805292258073128
v 0.5934375000000001 1.10537921200862 0.5656416730238037
v 0.40656250000000005 1.10537921200862 0.5656416730238037
v 0.5934375000000001 1.1249992809387357 0.43750125835721276
v 0.4065625000000001 1.1249992809387357 0.43750125835721276
v 0.5934375000000001 0.875 0.875
v 0.5934375000000001 0.9482230940951948 0.8406648793722977
v 0.5623958333333334 1.1249992809387357 0.43750125835721276
v 0.5623958333333334 1.10537921200862 0.5656416730238037
v 0.43760416666666674 1.1249992809387357 0.43750125835721276
v 0.4376041666666667 1.10537921200862 0.5656416730238037
v 0.5623958333333334 1.0674761494222793 0.6805292258073128
v 0.43760416666666674 1.0674761494222793 0.6805292258073128
v 0.5311458333333334 1.0138731242572 0.7743345198462015
v 0.4688541666666667 1.0138731242572 0.7743345198462015
v 0.5311458333333334 0.9482230940951948 0.8406648793722977
v 0.46885416666666674 0.9482230940951949 0.8406648793722977
v 0.5311458333333333 0.875 0.875
v 0.4688541666666667 0.875 0.875
v 0.43760416666666674 1.1196821666230767 0.4722278047146713
v 0.4065625000000001 1.1196821666230767 0.4722278047146713
v 0.5623958333333334 1.1196821666230767 0.4722278047146713
v 0.5934375000000001 1.1196821666230767 0.4722278047146713
v 0.43760416666666674 1.0844700742961915 0.62901912852947
v 0.4065625000000001 1.0844700742961915 0.62901912852947
v 0.5623958333333334 1.0844700742961915 0.62901912852947
v 0.5934375000000001 1.0844700742961915 0.62901912852947
v 0.56223984375 1.10537921200862 0.5656416730238037
v 0.56223984375 1.1196642879298087 0.47234457205005775
v 0.4377601562500001 1.1196642879298087 0.47234457205005775
v 0.43776015625000003 1.10537921200862 0.5656416730238037
v 0.56223984375 1.084496210718332 0.6289399067100878
v 0.4377601562500001 1.0844962107183322 0.6289399067100878
vt 0 0.49568568270869007
vt 0.13052844152543813 0.5128706341052689
vt 1.6653345369377348e-16 1
vt 0 0.49568591813824736
vt 0.13052399293164013 0.5128692836535108
vt 1.942890293094024e-16 1
vt 0 1
vt 0 0.8333333333333334
vt 0.13165 0.8333333333333334
vt 0.13165 1
vt 0 0.4956857650838492
vt 0.13052808725869539 0.5128703807243405
vt 2.7755575615628914e-17 1
vt 0 0.86947600706836
vt 0.4966098805988026 0.9279967380797556
vt 0.4871307163464892 1
vt 0 1
vt 0.05852071325093079 0.5033901012532089
vt 0.13052395331889516 0.5128694314928806
vt 0 0.869471558474562
vt 0.49178655397139465 0.9646262891579221
vt 0.4871293658947311 1
vt 0 1
vt 0.09515477510455937 0.5082133440519543
vt 0.13052850246018977 0.5128704066980736
vt 0 1
vt 0 0.8333333333333334
vt 0.13165 0.8333333333333334
vt 0.13165 1
vt 0 1
vt 0 0.8333333333333334
vt 0.13165 0.8333333333333334
vt 0.13165 1
vt 0.13165 1
vt 0.059025578858020525 1
vt 0.059025578858020525 0.8333333333333334
vt 0.13165 0.8333333333333334
vt 0.13165 1
vt 0.09597234248769469 1
vt 0.09597234248769469 0.8333333333333334
vt 0.13165 0.8333333333333334
vt 0.5043142349161508 0.8694719127413046
vt 0.48712961927565945 1
vt 0 0.8694719127413046
vt 0.5043142349161508 0.8694760466811049
vt 0.4871305685071194 1
vt 0 0.8694760466811049
vt 0.5043140818617525 0.8694714975398105
vt 0.4871295933019264 1
vt 0 0.8694714975398102
vt 0.13165 0.6666666666666667
vt 0.09597234248769469 0.6666666666666667
vt 0.09597234248769469 0.5
vt 0.13165 0.5
vt 0.13165 0.8333333333333334
vt 0.09597234248769469 0.8333333333333334
vt 0.09597234248769469 0.6666666666666667
vt 0.13165 0.6666666666666667
vt 0.13165 0.6666666666666667
vt 0.059025578858020525 0.6666666666666667
vt 0.059025578858020525 0.5
vt 0.13165 0.5
vt 0 0.421875
vt 0 0.0703125
vt 1 0.0703125
vt 1 0.421875
vt 0.13165 0.5
vt 0.13165 0.6666666666666667
vt 0 0.6666666666666667
vt 0 0.5
vt 0.13165 0.6666666666666667
vt 0.13165 0.8333333333333334
vt 0 0.8333333333333334
vt 0 0.6666666666666667
vt 0.13165 0.5
vt 0.13165 0.6666666666666667
vt 0 0.6666666666666667
vt 0 0.5
vt 0.13165 0.6666666666666667
vt 0.13165 0.8333333333333334
vt 0 0.8333333333333334
vt 0 0.6666666666666667
vt 0.13165 0.5
vt 0.13165 0.6666666666666667
vt 0 0.6666666666666667
vt 0 0.5
vt 0.13165 0.6666666666666667
vt 0.13165 0.8333333333333334
vt 0 0.8333333333333334
vt 0 0.6666666666666667
vt 0 0.8333333333333334
vt 0.09597234248769469 0.8333333333333334
vt 0.09597234248769469 1
vt 0 1
vt 2.498001805406602e-16 0.49568591813824747
vt 0.09515477510455937 0.5082133440519543
vt 0 1
vt 1 0.4140625
vt 1 1
vt 0 1
vt 0 0.4140625
vt 0 0.5
vt 0.09597234248769469 0.5
vt 0.09597234248769469 0.6666666666666667
vt 0 0.6666666666666667
vt 0.5043143172913099 0.8694715584745618
vt 0.49178655397139465 0.9646262891579221
vt 0 0.869471558474562
vt 0 0.8333333333333334
vt 0.059025578858020525 0.8333333333333334
vt 0.059025578858020525 1
vt 0 1
vt 2.7755575615628914e-17 0.4956857650838492
vt 0.05852071325093079 0.5033901012532089
vt 0 1
vt 0 0.6666666666666667
vt 0.059025578858020525 0.6666666666666667
vt 0.059025578858020525 0.8333333333333334
vt 0 0.8333333333333334
vt 0 0.5
vt 0.059025578858020525 0.5
vt 0.059025578858020525 0.6666666666666667
vt 0 0.6666666666666667
vt 0.5043140818617526 0.8694760070683598
vt 0.4966098805988026 0.9279967380797556
vt 0 0.86947600706836
vt 0.06249999999999806 0.6873812500000018
vt 0.06249999999999806 0.5930000000000019
vt 0.06265624999999805 0.5930000000000019
vt 0.06265624999999805 0.6875000000000019
vt 0.06265624999999825 0.7498812500000018
vt 0.18713124999999825 0.7498812500000018
vt 0.18728749999999825 0.7500000000000019
vt 0.062499999999998224 0.7500000000000019
vt 0.06265624999999825 0.7805000000000019
vt 0.06265624999999825 0.8748812500000018
vt 0.062499999999998224 0.8750000000000019
vt 0.062499999999998224 0.7805000000000019
vt 0.12515624999999825 0.8083437500000007
vt 0.12515624999999825 0.8750000000000007
vt 0.12499999999999822 0.8750000000000007
vt 0.12499999999999822 0.8082625000000007
vt 0.12463125000000003 0.7500000000000019
vt 0.00015625000000002442 0.7500000000000019
vt 0 0.7499187500000019
vt 0.12478750000000002 0.7499187500000019
vt 0.12499999999999806 0.6875000000000007
vt 0.12499999999999806 0.6208437500000007
vt 0.12515624999999805 0.6207625000000007
vt 0.12515624999999805 0.6875000000000007
vn -1 7.581092978312296e-16 -1.246004640659158e-21
vn -1 -5.969105247389959e-16 2.461008412249305e-16
vn 0 0.8682431421244594 0.49613893835683387
vn -1 6.015636283257845e-16 -2.4801927398755626e-16
vn 1 -1.0179715168340825e-16 -3.358435024408738e-17
vn -1 -4.1164345339183357e-16 7.400745454615943e-16
vn 1 -2.633183681426967e-16 2.56807103497135e-16
vn -1 2.2204443379815278e-16 3.3998072411451663e-17
vn 0 0.4245534472077442 0.905402877433036
vn 0 0.710742315593533 0.7034524581126594
vn 0 0.9496528264568826 0.31330417999518306
vn 0 0.9884802378924329 0.1513499894156567
vn 1 -8.376494942378058e-17 -4.786568538501747e-17
vn 1 -5.877261292715287e-17 -5.816980096194758e-17
vn 1 -3.7905464891561456e-16 6.230023203295786e-22
vn 0 0.9884802378924327 0.15134998941565822
vn 4.389645440414804e-16 0.9884802378924329 0.1513499894156567
vn 0 0.9496528264568825 0.313304179995183
vn 4.181528257186356e-16 0.9496528264568828 0.31330417999518273
vn 0 0.8682431421244592 0.4961389383568338
vn 3.862211127984509e-16 0.8682431421244593 0.49613893835683365
vn 0 0.7107423155935332 0.7034524581126593
vn 6.333772441583996e-16 0.7107423155935331 0.7034524581126594
vn 0 0.4245534472077443 0.905402877433036
vn 1.8917017215010786e-16 0.4245534472077442 0.905402877433036
vn 0 0.9884802378924329 0.1513499894156575
vn -1 3.045923024872408e-16 -5.476122794057222e-16
vn 4.42948120470598e-16 0.9884802378924328 0.1513499894156574
vn 0 0.9884802378924328 0.15134998941565808
vn 1 -2.2204443379815273e-16 -3.3998072411452015e-17
vn 0 0.9496528264568826 0.31330417999518295
vn -1 2.0359430336681645e-16 6.716870048817475e-17
vn 4.1645734995172063e-16 0.9496528264568828 0.313304179995183
vn 0 0.9496528264568825 0.313304179995183
vn 1 -1.017971516834083e-16 -3.3584350244087315e-17
vn 0 0.9884802378924329 0.1513499894156574
vn 4.4080827223120933e-16 0.9884802378924203 0.1513499894157385
vn 5.891210002258355e-14 0.9884802378924329 0.15134998941565742
vn 0 0.9496528264568828 0.31330417999518273
vn 4.2349336446266014e-16 0.9496528264568118 0.3133041799953977
vn 1.251322330963113e-13 0.9496528264568828 0.3133041799951828
usemtl m_9a894947-fc8c-6671-2e79-adcc3d371fc1
f 3/1/1 4/2/1 2/3/1
f 4/4/2 6/5/2 2/6/2
f 6/7/3 22/8/3 20/9/3
f 6/7/3 20/9/3 8/10/3
f 6/11/4 8/12/4 2/13/4
f 1/14/5 34/15/5 7/16/5
f 2/17/6 32/18/6 10/19/6
f 1/20/7 30/21/7 9/22/7
f 2/23/8 28/24/8 12/25/8
f 3/26/9 26/27/9 24/28/9
f 3/26/9 24/28/9 4/29/9
f 4/30/10 24/31/10 22/32/10
f 4/30/10 22/32/10 6/33/10
f 10/34/11 32/35/11 31/36/11
f 10/34/11 31/36/11 18/37/11
f 12/38/12 28/39/12 27/40/12
f 12/38/12 27/40/12 17/41/12
f 7/42/13 5/43/13 1/44/13
f 5/45/14 14/46/14 1/47/14
f 14/48/15 13/49/15 1/50/15
f 15/51/16 29/52/16 30/53/16
f 15/51/16 30/53/16 11/54/16
f 17/55/17 27/56/17 29/57/17
f 17/55/17 29/57/17 15/58/17
f 16/59/18 33/60/18 34/61/18
f 16/59/18 34/61/18 9/62/18
usemtl m_6ad109dc-dcae-9666-13b8-96429bcf12b1
f 38/63/19 40/64/19 39/65/19
f 38/63/19 39/65/19 35/66/19
usemtl m_9a894947-fc8c-6671-2e79-adcc3d371fc1
f 7/67/20 19/68/20 21/69/20
f 7/67/20 21/69/20 5/70/20
f 19/71/21 20/72/21 22/73/21
f 19/71/21 22/73/21 21/74/21
f 5/75/22 21/76/22 23/77/22
f 5/75/22 23/77/22 14/78/22
f 21/79/23 22/80/23 24/81/23
f 21/79/23 24/81/23 23/82/23
f 14/83/24 23/84/24 25/85/24
f 14/83/24 25/85/24 13/86/24
f 23/87/25 24/88/25 26/89/25
f 23/87/25 26/89/25 25/90/25
f 18/91/26 27/92/26 28/93/26
f 18/91/26 28/93/26 10/94/26
f 10/95/27 28/96/27 2/97/27
usemtl m_6ad109dc-dcae-9666-13b8-96429bcf12b1
f 35/98/28 36/99/28 37/100/28
f 35/98/28 37/100/28 38/101/28
usemtl m_9a894947-fc8c-6671-2e79-adcc3d371fc1
f 9/102/29 30/103/29 29/104/29
f 9/102/29 29/104/29 16/105/29
f 11/106/30 30/107/30 1/108/30
f 20/109/31 31/110/31 32/111/31
f 20/109/31 32/111/31 8/112/31
f 8/113/32 32/114/32 2/115/32
f 19/116/33 33/117/33 31/118/33
f 19/116/33 31/118/33 20/119/33
f 7/120/34 34/121/34 33/122/34
f 7/120/34 33/122/34 19/123/34
f 9/124/35 34/125/35 1/126/35
f 36/127/36 35/128/36 16/129/36
f 36/127/36 16/129/36 29/130/36
f 37/131/37 36/132/37 29/133/37
f 37/131/37 29/133/37 27/134/37
f 38/135/38 37/136/38 27/137/38
f 38/135/38 27/137/38 18/138/38
f 40/139/39 38/140/39 18/141/39
f 40/139/39 18/141/39 31/142/39
f 39/143/40 40/144/40 31/145/40
f 39/143/40 31/145/40 33/146/40
f 35/147/41 39/148/41 33/149/41
f 35/147/41 33/149/41 16/150/41