# Made in Blockbench 4.12.4
mtllib beijingsign_a_onwall.mtl

o main
v 0.25312500000000004 0.828125 -0.37187499999999996
v 0.25312500000000004 0.828125 -0.5
v 0.25312500000000004 0.8125 -0.37187499999999996
v 0.25312500000000004 0.8125 -0.5
v -0.25312500000000004 0.828125 -0.37187499999999996
v -0.25312500000000004 0.828125 -0.5
v -0.25312500000000004 0.8125 -0.37187499999999996
v -0.25312500000000004 0.8125 -0.5
v 0.25312500000000004 0.1875 -0.37187499999999996
v 0.25312500000000004 0.1875 -0.5
v 0.25312500000000004 0.171875 -0.37187499999999996
v 0.25312500000000004 0.171875 -0.5
v -0.25312500000000004 0.1875 -0.37187499999999996
v -0.25312500000000004 0.1875 -0.5
v -0.25312500000000004 0.171875 -0.37187499999999996
v -0.25312500000000004 0.171875 -0.5
v 0.25 0.8125 -0.375
v 0.25 0.8125 -0.5
v 0.25 0.1875 -0.375
v 0.25 0.1875 -0.5
v -0.25 0.8125 -0.375
v -0.25 0.8125 -0.5
v -0.25 0.1875 -0.375
v -0.25 0.1875 -0.5
vt 0.5062500000000001 0.871875
vt 0.5062500000000001 1
vt 0 1
vt 0 0.871875
vt 0.5062500000000001 0.871875
vt 0.5062500000000001 1
vt 0 1
vt 0 0.871875
vt 0.5062500000000001 0.984375
vt 0.5062500000000001 1
vt 0 1
vt 0 0.984375
vt 0.5062500000000001 0.984375
vt 0.5062500000000001 1
vt 0 1
vt 0 0.984375
vt 0.5062500000000001 0.871875
vt 0.5062500000000001 1
vt 0 1
vt 0 0.871875
vt 0.5062500000000001 0.871875
vt 0.5062500000000001 1
vt 0 1
vt 0 0.871875
vt 0.5062500000000001 0.984375
vt 0.5062500000000001 1
vt 0 1
vt 0 0.984375
vt 0.5062500000000001 0.984375
vt 0.5062500000000001 1
vt 0 1
vt 0 0.984375
vt 0.5 0.375
vt 0.5 1
vt 0 1
vt 0 0.375
vt 0.5 0.375
vt 0.5 1
vt 0 1
vt 0 0.375
vn 0 1 0
vn 0 -1 0
vn 0 0 1
vn 0 0 -1
vn 0 1 0
vn 0 -1 0
vn 0 0 1
vn 0 0 -1
vn 0 0 1
vn 0 0 -1
usemtl m_1ca6230d-24ee-a368-4c12-225bb859fec1
f 1/1/1 2/2/1 6/3/1
f 1/1/1 6/3/1 5/4/1
usemtl m_6278ad0b-93e8-64a8-4ba8-50254ff4bce6
f 4/5/2 3/6/2 7/7/2
f 4/5/2 7/7/2 8/8/2
f 3/9/3 1/10/3 5/11/3
f 3/9/3 5/11/3 7/12/3
usemtl m_1ca6230d-24ee-a368-4c12-225bb859fec1
f 8/13/4 6/14/4 2/15/4
f 8/13/4 2/15/4 4/16/4
usemtl m_6278ad0b-93e8-64a8-4ba8-50254ff4bce6
f 9/17/5 10/18/5 14/19/5
f 9/17/5 14/19/5 13/20/5
f 12/21/6 11/22/6 15/23/6
f 12/21/6 15/23/6 16/24/6
f 11/25/7 9/26/7 13/27/7
f 11/25/7 13/27/7 15/28/7
usemtl m_1ca6230d-24ee-a368-4c12-225bb859fec1
f 16/29/8 14/30/8 10/31/8
f 16/29/8 10/31/8 12/32/8
usemtl m_01afd25a-9002-9eef-370d-0828fb981265
f 19/33/9 17/34/9 21/35/9
f 19/33/9 21/35/9 23/36/9
usemtl m_1ca6230d-24ee-a368-4c12-225bb859fec1
f 24/37/10 22/38/10 18/39/10
f 24/37/10 18/39/10 20/40/10
o sideb
v 0.06875000000000014 0.828125 -0.37187499999999996
v 0.06875000000000014 0.828125 -0.5
v 0.06875000000000014 0.171875 -0.37187499999999996
v 0.06875000000000014 0.171875 -0.5
v 0.06249999999999997 0.828125 -0.37187499999999996
v 0.06249999999999997 0.828125 -0.5
v 0.06249999999999997 0.171875 -0.37187499999999996
v 0.06249999999999997 0.171875 -0.5
v 0 0.828125 -0.37187499999999996
v 0 0.828125 -0.5
v 0 0.8125 -0.37187499999999996
v 0 0.8125 -0.5
v 0.06562500000000004 0.828125 -0.37187499999999996
v 0.06562500000000004 0.828125 -0.5
v 0.06562500000000004 0.8125 -0.37187499999999996
v 0.06562500000000004 0.8125 -0.5
v 0 0.1875 -0.37187499999999996
v 0 0.1875 -0.5
v 0 0.171875 -0.37187499999999996
v 0 0.171875 -0.5
v 0.06562500000000004 0.1875 -0.37187499999999996
v 0.06562500000000004 0.1875 -0.5
v 0.06562500000000004 0.171875 -0.37187499999999996
v 0.06562500000000004 0.171875 -0.5
v 0 0.8125 -0.375
v 0 0.1875 -0.375
v 0.0625 0.8125 -0.375
v 0.0625 0.8125 -0.5
v 0.0625 0.1875 -0.375
v 0.0625 0.1875 -0.5
vt 0.128125 0.34375
vt 0.128125 1
vt 0 1
vt 0 0.34375
vt 0.128125 0.34375
vt 0.128125 1
vt 0 1
vt 0 0.34375
vt 0.006250000000000172 0.871875
vt 0.006250000000000172 1
vt 0 1
vt 0 0.871875
vt 0.006250000000000172 0.871875
vt 0.006250000000000172 1
vt 0 1
vt 0 0.871875
vt 0.006250000000000172 0.34375
vt 0.006250000000000172 1
vt 0 1
vt 0 0.34375
vt 0.006250000000000172 0.34375
vt 0.006250000000000172 1
vt 0 1
vt 0 0.34375
vt 0 1
vt 0.5062500000000001 1
vt 0.5062500000000001 0.871875
vt 0 0.871875
vt 0 1
vt 0.5062500000000001 1
vt 0.5062500000000001 0.871875
vt 0 0.871875
vt 0 1
vt 0.5062500000000001 1
vt 0.5062500000000001 0.984375
vt 0 0.984375
vt 0 1
vt 0.5062500000000001 1
vt 0.5062500000000001 0.984375
vt 0 0.984375
vt 0 1
vt 0.5062500000000001 1
vt 0.5062500000000001 0.871875
vt 0 0.871875
vt 0 1
vt 0.5062500000000001 1
vt 0.5062500000000001 0.871875
vt 0 0.871875
vt 0 1
vt 0.5062500000000001 1
vt 0.5062500000000001 0.984375
vt 0 0.984375
vt 0 1
vt 0.5062500000000001 1
vt 0.5062500000000001 0.984375
vt 0 0.984375
vt 0 1
vt 0.5 1
vt 0.5 0.375
vt 0 0.375
vt 0 1
vt 0.5 1
vt 0.5 0.375
vt 0 0.375
vn 1 0 0
vn -1 0 0
vn 0 1 0
vn 0 -1 0
vn 0 0 1
vn 0 0 -1
vn 0 1 0
vn 0 -1 0
vn 0 0 1
vn 0 0 -1
vn 0 1 0
vn 0 -1 0
vn 0 0 1
vn 0 0 -1
vn 0 0 1
vn 0 0 -1
usemtl m_6278ad0b-93e8-64a8-4ba8-50254ff4bce6
f 28/41/11 26/42/11 25/43/11
f 28/41/11 25/43/11 27/44/11
f 31/45/12 29/46/12 30/47/12
f 31/45/12 30/47/12 32/48/12
f 25/49/13 26/50/13 30/51/13
f 25/49/13 30/51/13 29/52/13
f 28/53/14 27/54/14 31/55/14
f 28/53/14 31/55/14 32/56/14
f 27/57/15 25/58/15 29/59/15
f 27/57/15 29/59/15 31/60/15
usemtl m_1ca6230d-24ee-a368-4c12-225bb859fec1
f 32/61/16 30/62/16 26/63/16
f 32/61/16 26/63/16 28/64/16
f 38/65/17 34/66/17 33/67/17
f 38/65/17 33/67/17 37/68/17
usemtl m_6278ad0b-93e8-64a8-4ba8-50254ff4bce6
f 39/69/18 35/70/18 36/71/18
f 39/69/18 36/71/18 40/72/18
f 37/73/19 33/74/19 35/75/19
f 37/73/19 35/75/19 39/76/19
usemtl m_1ca6230d-24ee-a368-4c12-225bb859fec1
f 34/77/20 38/78/20 40/79/20
f 34/77/20 40/79/20 36/80/20
usemtl m_6278ad0b-93e8-64a8-4ba8-50254ff4bce6
f 46/81/21 42/82/21 41/83/21
f 46/81/21 41/83/21 45/84/21
f 47/85/22 43/86/22 44/87/22
f 47/85/22 44/87/22 48/88/22
f 45/89/23 41/90/23 43/91/23
f 45/89/23 43/91/23 47/92/23
usemtl m_1ca6230d-24ee-a368-4c12-225bb859fec1
f 42/93/24 46/94/24 48/95/24
f 42/93/24 48/95/24 44/96/24
usemtl m_01afd25a-9002-9eef-370d-0828fb981265
f 51/97/25 49/98/25 50/99/25
f 51/97/25 50/99/25 53/100/25
usemtl m_1ca6230d-24ee-a368-4c12-225bb859fec1
f 36/101/26 52/102/26 54/103/26
f 36/101/26 54/103/26 42/104/26
o sidea
v -0.0625 0.828125 -0.37187499999999996
v -0.0625 0.828125 -0.5
v -0.0625 0.171875 -0.37187499999999996
v -0.0625 0.171875 -0.5
v -0.06875000000000003 0.828125 -0.37187499999999996
v -0.06875000000000003 0.828125 -0.5
v -0.06875000000000003 0.171875 -0.37187499999999996
v -0.06875000000000003 0.171875 -0.5
v 0 0.828125 -0.37187499999999996
v 0 0.828125 -0.5
v 0 0.8125 -0.37187499999999996
v 0 0.8125 -0.5
v -0.06562500000000004 0.828125 -0.37187499999999996
v -0.06562500000000004 0.828125 -0.5
v -0.06562500000000004 0.8125 -0.37187499999999996
v -0.06562500000000004 0.8125 -0.5
v 0 0.1875 -0.37187499999999996
v 0 0.1875 -0.5
v 0 0.171875 -0.37187499999999996
v 0 0.171875 -0.5
v -0.06562500000000004 0.1875 -0.37187499999999996
v -0.06562500000000004 0.1875 -0.5
v -0.06562500000000004 0.171875 -0.37187499999999996
v -0.06562500000000004 0.171875 -0.5
v 0 0.8125 -0.375
v 0 0.1875 -0.375
v -0.0625 0.8125 -0.375
v -0.0625 0.8125 -0.5
v -0.0625 0.1875 -0.375
v -0.0625 0.1875 -0.5
vt 0.128125 0.34375
vt 0.128125 1
vt 0 1
vt 0 0.34375
vt 0.128125 0.34375
vt 0.128125 1
vt 0 1
vt 0 0.34375
vt 0.006250000000000033 0.871875
vt 0.006250000000000033 1
vt 0 1
vt 0 0.871875
vt 0.006250000000000033 0.871875
vt 0.006250000000000033 1
vt 0 1
vt 0 0.871875
vt 0.006250000000000033 0.34375
vt 0.006250000000000033 1
vt 0 1
vt 0 0.34375
vt 0.006250000000000033 0.34375
vt 0.006250000000000033 1
vt 0 1
vt 0 0.34375
vt 0.5062500000000001 0.871875
vt 0.5062500000000001 1
vt 0 1
vt 0 0.871875
vt 0.5062500000000001 0.871875
vt 0.5062500000000001 1
vt 0 1
vt 0 0.871875
vt 0.5062500000000001 0.984375
vt 0.5062500000000001 1
vt 0 1
vt 0 0.984375
vt 0.5062500000000001 0.984375
vt 0.5062500000000001 1
vt 0 1
vt 0 0.984375
vt 0.5062500000000001 0.871875
vt 0.5062500000000001 1
vt 0 1
vt 0 0.871875
vt 0.5062500000000001 0.871875
vt 0.5062500000000001 1
vt 0 1
vt 0 0.871875
vt 0.5062500000000001 0.984375
vt 0.5062500000000001 1
vt 0 1
vt 0 0.984375
vt 0.5062500000000001 0.984375
vt 0.5062500000000001 1
vt 0 1
vt 0 0.984375
vt 0.5 0.375
vt 0.5 1
vt 0 1
vt 0 0.375
vt 0.5 0.375
vt 0.5 1
vt 0 1
vt 0 0.375
vn 1 0 0
vn -1 0 0
vn 0 1 0
vn 0 -1 0
vn 0 0 1
vn 0 0 -1
vn 0 1 0
vn 0 -1 0
vn 0 0 1
vn 0 0 -1
vn 0 1 0
vn 0 -1 0
vn 0 0 1
vn 0 0 -1
vn 0 0 1
vn 0 0 -1
usemtl m_6278ad0b-93e8-64a8-4ba8-50254ff4bce6
f 58/105/27 56/106/27 55/107/27
f 58/105/27 55/107/27 57/108/27
f 61/109/28 59/110/28 60/111/28
f 61/109/28 60/111/28 62/112/28
f 55/113/29 56/114/29 60/115/29
f 55/113/29 60/115/29 59/116/29
f 58/117/30 57/118/30 61/119/30
f 58/117/30 61/119/30 62/120/30
f 57/121/31 55/122/31 59/123/31
f 57/121/31 59/123/31 61/124/31
usemtl m_1ca6230d-24ee-a368-4c12-225bb859fec1
f 62/125/32 60/126/32 56/127/32
f 62/125/32 56/127/32 58/128/32
f 63/129/33 64/130/33 68/131/33
f 63/129/33 68/131/33 67/132/33
usemtl m_6278ad0b-93e8-64a8-4ba8-50254ff4bce6
f 66/133/34 65/134/34 69/135/34
f 66/133/34 69/135/34 70/136/34
f 65/137/35 63/138/35 67/139/35
f 65/137/35 67/139/35 69/140/35
usemtl m_1ca6230d-24ee-a368-4c12-225bb859fec1
f 70/141/36 68/142/36 64/143/36
f 70/141/36 64/143/36 66/144/36
usemtl m_6278ad0b-93e8-64a8-4ba8-50254ff4bce6
f 71/145/37 72/146/37 76/147/37
f 71/145/37 76/147/37 75/148/37
f 74/149/38 73/150/38 77/151/38
f 74/149/38 77/151/38 78/152/38
f 73/153/39 71/154/39 75/155/39
f 73/153/39 75/155/39 77/156/39
usemtl m_1ca6230d-24ee-a368-4c12-225bb859fec1
f 78/157/40 76/158/40 72/159/40
f 78/157/40 72/159/40 74/160/40
usemtl m_01afd25a-9002-9eef-370d-0828fb981265
f 80/161/41 79/162/41 81/163/41
f 80/161/41 81/163/41 83/164/41
usemtl m_1ca6230d-24ee-a368-4c12-225bb859fec1
f 84/165/42 82/166/42 66/167/42
f 84/165/42 66/167/42 72/168/42